# xmcd CD database file
#
# Track frame offsets:
#	183
#	12773
#	26000
#	37430
#	51493
#	64570
#	77970
#	90000
#	104028
#	118530
#
# Disc length: 1785 seconds
#
# Revision: 3
# Processed by: cddbd v1.5.2PL0 Copyright (c) Steve Scherf et al.
# Submitted via: CDex 1.51
#
DISCID=8006f70a
DTITLE=The Marcy Bros. - Missing You
DYEAR=1989
DGENRE=Country
TTITLE0=You're Not Even Crying
TTITLE1=I Don't Want To Be Alone Tonight
TTITLE2=Missing You
TTITLE3=People Still Fall In Love
TTITLE4=Song On The Radio
TTITLE5=Cotton Pickin' Time
TTITLE6=Boys You Gotta Learn to Dance
TTITLE7=Threads Of Gold
TTITLE8=The Things I Didn't Say
TTITLE9=Walkin' Shoes
EXTD=more info - MillenniumMusicProjectFormat - SYNTAX=SongTitle{Subtitle}[miscInfo](Lyricist;Composer;Date,Artist,Location,State,Country) YEAR: 1989
EXTT0=
EXTT1=
EXTT2=
EXTT3=
EXTT4=
EXTT5=
EXTT6=
EXTT7=
EXTT8=
EXTT9=
PLAYORDER=
